<svg aria-hidden="true" style="position: absolute; width: 0; height: 0; overflow: hidden;" version="1.1" xmlns="http://www.w3.org/2000/svg" xmlns:xlink="http://www.w3.org/1999/xlink">
<defs>
<symbol id="icon-open-header-icon" viewBox="0 0 46 32">
<path fill="#fff" style="fill: var(--color1, #fff)" d="M0 2.274c0-1.257 1.019-2.274 2.274-2.274h18.309c1.256 0 2.274 1.018 2.274 2.274s-1.018 2.274-2.274 2.274v0h-18.309c-1.256 0-2.274-1.018-2.274-2.274v0zM0 16c0-1.257 1.019-2.274 2.274-2.274h41.166c1.256 0 2.274 1.018 2.274 2.274s-1.018 2.274-2.274 2.274h-41.166c-1.256 0-2.274-1.018-2.274-2.274v0zM2.274 27.451c-1.256 0-2.274 1.018-2.274 2.274s1.018 2.274 2.274 2.274h27.451c1.256 0 2.274-1.018 2.274-2.274s-1.018-2.274-2.274-2.274h-27.451z"></path>
</symbol>
<symbol id="icon-mob-close-icon" viewBox="0 0 32 32">
<path fill="none" stroke="#fff" style="stroke: var(--color1, #fff)" stroke-linejoin="round" stroke-linecap="round" stroke-miterlimit="4" stroke-width="1.7333" d="M24 8l-16 16M8 8l16 16"></path>
</symbol>
<symbol id="icon-logo-header" viewBox="0 0 32 32">
<path d="M28.13 18.563l-6.748-15.457-1.471-1.020-1.725-0.549-2.334-0.628-2.74 1.177-1.826 1.020 6.9 15.457h9.944z"></path>
<path d="M3.912 13.395l6.748 15.493 1.471 1.022 1.725 0.55 2.334 0.629 2.74-1.18 1.826-1.022-6.9-15.493h-9.944z"></path>
<path d="M10.924 3.309l-10.476 15.142 10.476 0.112 7.573-15.255c0.532-1.561 2.195-0.65 2.961 0-3.271-5.993-8.385-2.497-10.533 0zM21.076 28.691l10.476-15.142-10.476-0.112-7.573 15.255c-0.532 1.56-2.195 0.65-2.961 0 3.271 5.992 8.385 2.497 10.533 0z"></path>
</symbol>
</defs>
</svg>



     